<svg xmlns="http://www.w3.org/2000/svg" viewBox="0 0 480 650" font-family="system-ui, -apple-system, sans-serif">
  <defs>
    <style>
      .bg { fill: #161b22; }
      .header-bar { fill: #21262d; }
      .section-bg { fill: #1c2128; }
      .row-alt { fill: #1c2128; opacity: 0.4; }
      .bright { fill: #e6edf3; font-family: system-ui, -apple-system, sans-serif; }
      .muted { fill: #8b949e; font-family: system-ui, -apple-system, sans-serif; }
      .accent { fill: #58a6ff; font-family: system-ui, -apple-system, sans-serif; }
      .green { fill: #3fb950; }
      .yellow { fill: #d29922; }
      .red { fill: #f85149; }
      .mono { font-family: 'Cascadia Code', 'Fira Code', Consolas, monospace; }
      .indent { stroke: #30363d; stroke-width: 1; }
    </style>
  </defs>

  <!-- Background -->
  <rect width="480" height="650" class="bg"/>

  <!-- Activity Bar hint (left edge) -->
  <rect x="0" y="0" width="32" height="650" fill="#181b23"/>
  <rect x="8" y="8" width="16" height="16" rx="3" class="accent" opacity="0.2"/>
  <text x="16" y="19" class="accent" font-size="10" font-weight="700" text-anchor="middle">CC</text>

  <!-- Header bar -->
  <rect x="32" y="0" width="448" height="32" class="header-bar"/>
  <text x="48" y="21" class="muted" font-size="12" font-weight="700" letter-spacing="1.5">COMMAND CENTRAL</text>
  <text x="464" y="21" class="muted" font-size="13" text-anchor="end">⋯</text>

  <!-- ═══════ Project 1: 🚀 MY-APP ═══════ -->
  <rect x="32" y="36" width="448" height="30" class="section-bg"/>
  <text x="44" y="56" font-size="16">🚀</text>
  <text x="66" y="56" class="bright" font-size="14" font-weight="700">MY-APP</text>
  <text x="140" y="56" class="muted" font-size="11">▼</text>
  <text x="160" y="56" class="muted" font-size="12">(8)</text>
  <!-- Launch Terminal Button -->
  <text x="456" y="56" class="accent" font-size="14" text-anchor="end">▶</text>

  <!-- Agent Status (FIRST CHILD) -->
  <rect x="32" y="66" width="448" height="24" fill="transparent"/>
  <line x1="66" y1="66" x2="66" y2="90" class="indent"/>
  <text x="78" y="83" class="green" font-size="10">🟢</text>
  <text x="96" y="83" class="bright" font-size="12">Agent: code-review</text>
  <text x="220" y="83" class="muted" font-size="11">(running, 3m)</text>

  <!-- Staged Section -->
  <rect x="32" y="90" width="448" height="24" fill="transparent"/>
  <line x1="66" y1="90" x2="66" y2="114" class="indent"/>
  <text x="78" y="107" class="green" font-size="10">●</text>
  <text x="96" y="107" class="bright" font-size="12" font-weight="600">Staged</text>
  <text x="150" y="107" class="muted" font-size="11">• 3 ready to commit</text>

  <!-- Today (Staged) -->
  <text x="94" y="128" class="accent" font-size="11" font-weight="600">Today (2 files)</text>

  <!-- auth.ts -->
  <rect x="32" y="134" width="448" height="26" fill="transparent"/>
  <line x1="66" y1="134" x2="66" y2="160" class="indent"/>
  <line x1="94" y1="134" x2="94" y2="160" class="indent"/>
  <rect x="104" y="140" width="20" height="13" rx="2" fill="#519aba" opacity="0.2"/>
  <text x="114" y="149" fill="#519aba" font-size="8" font-weight="700" text-anchor="middle">TS</text>
  <text x="130" y="149" class="bright mono" font-size="12">auth.ts</text>
  <text x="260" y="149" class="muted" font-size="11">now</text>
  <text x="456" y="149" class="green" font-size="12" font-weight="700" text-anchor="end" font-family="monospace">A</text>

  <!-- config.ts -->
  <rect x="32" y="160" width="448" height="26" class="row-alt"/>
  <line x1="66" y1="160" x2="66" y2="186" class="indent"/>
  <line x1="94" y1="160" x2="94" y2="186" class="indent"/>
  <rect x="104" y="166" width="20" height="13" rx="2" fill="#519aba" opacity="0.2"/>
  <text x="114" y="175" fill="#519aba" font-size="8" font-weight="700" text-anchor="middle">TS</text>
  <text x="130" y="175" class="bright mono" font-size="12">config.ts</text>
  <text x="260" y="175" class="muted" font-size="11">1 hour ago</text>
  <text x="456" y="175" class="yellow" font-size="12" font-weight="700" text-anchor="end" font-family="monospace">M</text>

  <!-- Yesterday (Staged) -->
  <text x="94" y="202" class="accent" font-size="11" font-weight="600">Yesterday (1 file)</text>

  <!-- utils.ts -->
  <rect x="32" y="208" width="448" height="26" fill="transparent"/>
  <line x1="66" y1="208" x2="66" y2="234" class="indent"/>
  <line x1="94" y1="208" x2="94" y2="234" class="indent"/>
  <rect x="104" y="214" width="20" height="13" rx="2" fill="#519aba" opacity="0.2"/>
  <text x="114" y="223" fill="#519aba" font-size="8" font-weight="700" text-anchor="middle">TS</text>
  <text x="130" y="223" class="bright mono" font-size="12">utils.ts</text>
  <text x="260" y="223" class="muted" font-size="11">13 hours ago</text>
  <text x="456" y="223" class="yellow" font-size="12" font-weight="700" text-anchor="end" font-family="monospace">M</text>

  <!-- Working Section -->
  <rect x="32" y="234" width="448" height="24" fill="transparent"/>
  <line x1="66" y1="234" x2="66" y2="258" class="indent"/>
  <text x="78" y="251" class="yellow" font-size="10">●</text>
  <text x="96" y="251" class="bright" font-size="12" font-weight="600">Working</text>
  <text x="160" y="251" class="muted" font-size="11">• 5 files changed</text>

  <!-- Today (Working) -->
  <text x="94" y="272" class="accent" font-size="11" font-weight="600">Today (3 files)</text>

  <!-- App.tsx -->
  <rect x="32" y="278" width="448" height="26" fill="transparent"/>
  <line x1="66" y1="278" x2="66" y2="304" class="indent"/>
  <line x1="94" y1="278" x2="94" y2="304" class="indent"/>
  <rect x="104" y="284" width="22" height="13" rx="2" fill="#61dafb" opacity="0.2"/>
  <text x="115" y="293" fill="#61dafb" font-size="7" font-weight="700" text-anchor="middle">TSX</text>
  <text x="132" y="293" class="bright mono" font-size="12">App.tsx</text>
  <text x="260" y="293" class="muted" font-size="11">now</text>
  <text x="456" y="293" class="yellow" font-size="12" font-weight="700" text-anchor="end" font-family="monospace">M</text>

  <!-- api.ts -->
  <rect x="32" y="304" width="448" height="26" class="row-alt"/>
  <line x1="66" y1="304" x2="66" y2="330" class="indent"/>
  <line x1="94" y1="304" x2="94" y2="330" class="indent"/>
  <rect x="104" y="310" width="20" height="13" rx="2" fill="#519aba" opacity="0.2"/>
  <text x="114" y="319" fill="#519aba" font-size="8" font-weight="700" text-anchor="middle">TS</text>
  <text x="130" y="319" class="bright mono" font-size="12">api.ts</text>
  <text x="260" y="319" class="muted" font-size="11">2 hours ago</text>
  <text x="456" y="319" class="yellow" font-size="12" font-weight="700" text-anchor="end" font-family="monospace">M</text>

  <!-- hooks.ts -->
  <rect x="32" y="330" width="448" height="26" fill="transparent"/>
  <line x1="66" y1="330" x2="66" y2="356" class="indent"/>
  <line x1="94" y1="330" x2="94" y2="356" class="indent"/>
  <rect x="104" y="336" width="20" height="13" rx="2" fill="#519aba" opacity="0.2"/>
  <text x="114" y="345" fill="#519aba" font-size="8" font-weight="700" text-anchor="middle">TS</text>
  <text x="130" y="345" class="bright mono" font-size="12">hooks.ts</text>
  <text x="260" y="345" class="muted" font-size="11">3 hours ago</text>
  <text x="456" y="345" class="green" font-size="12" font-weight="700" text-anchor="end" font-family="monospace">U</text>

  <!-- This Week (Working) -->
  <text x="94" y="372" class="accent" font-size="11" font-weight="600">This Week (2 files)</text>

  <!-- README.md -->
  <rect x="32" y="378" width="448" height="26" fill="transparent"/>
  <line x1="66" y1="378" x2="66" y2="404" class="indent"/>
  <line x1="94" y1="378" x2="94" y2="404" class="indent"/>
  <rect x="104" y="384" width="20" height="13" rx="2" fill="#083fa1" opacity="0.2"/>
  <text x="114" y="393" fill="#083fa1" font-size="8" font-weight="700" text-anchor="middle">MD</text>
  <text x="130" y="393" class="bright mono" font-size="12">README.md</text>
  <text x="260" y="393" class="muted" font-size="11">3 days ago</text>
  <text x="456" y="393" class="yellow" font-size="12" font-weight="700" text-anchor="end" font-family="monospace">M</text>

  <!-- package.json -->
  <rect x="32" y="404" width="448" height="26" class="row-alt"/>
  <line x1="66" y1="404" x2="66" y2="430" class="indent"/>
  <line x1="94" y1="404" x2="94" y2="430" class="indent"/>
  <rect x="104" y="410" width="22" height="13" rx="2" fill="#d29922" opacity="0.2"/>
  <text x="115" y="419" fill="#d29922" font-size="7" font-weight="700" text-anchor="middle">JSON</text>
  <text x="132" y="419" class="bright mono" font-size="12">package.json</text>
  <text x="260" y="419" class="muted" font-size="11">4 days ago</text>
  <text x="456" y="419" class="yellow" font-size="12" font-weight="700" text-anchor="end" font-family="monospace">M</text>

  <!-- ═══════ Project 2: ⚡ API-SERVER ═══════ -->
  <rect x="32" y="440" width="448" height="30" class="section-bg"/>
  <text x="44" y="460" font-size="16">⚡</text>
  <text x="66" y="460" class="bright" font-size="14" font-weight="700">API-SERVER</text>
  <text x="158" y="460" class="muted" font-size="11">▼</text>
  <text x="178" y="460" class="muted" font-size="12">(4)</text>
  <!-- Launch Terminal Button -->
  <text x="456" y="460" class="accent" font-size="14" text-anchor="end">▶</text>

  <!-- Agent Status (FIRST CHILD) -->
  <rect x="32" y="470" width="448" height="24" fill="transparent"/>
  <line x1="66" y1="470" x2="66" y2="494" class="indent"/>
  <text x="78" y="487" class="green" font-size="10">✅</text>
  <text x="96" y="487" class="bright" font-size="12">Agent: refactor-api</text>
  <text x="230" y="487" class="muted" font-size="11">(completed, 12m)</text>

  <!-- Working Section -->
  <rect x="32" y="494" width="448" height="24" fill="transparent"/>
  <line x1="66" y1="494" x2="66" y2="518" class="indent"/>
  <text x="78" y="511" class="yellow" font-size="10">●</text>
  <text x="96" y="511" class="bright" font-size="12" font-weight="600">Working</text>
  <text x="160" y="511" class="muted" font-size="11">• 4 files changed</text>

  <!-- Today -->
  <text x="94" y="532" class="accent" font-size="11" font-weight="600">Today (2 files)</text>

  <!-- server.ts -->
  <rect x="32" y="538" width="448" height="26" fill="transparent"/>
  <line x1="66" y1="538" x2="66" y2="564" class="indent"/>
  <line x1="94" y1="538" x2="94" y2="564" class="indent"/>
  <rect x="104" y="544" width="20" height="13" rx="2" fill="#519aba" opacity="0.2"/>
  <text x="114" y="553" fill="#519aba" font-size="8" font-weight="700" text-anchor="middle">TS</text>
  <text x="130" y="553" class="bright mono" font-size="12">server.ts</text>
  <text x="260" y="553" class="muted" font-size="11">2 hours ago</text>
  <text x="456" y="553" class="yellow" font-size="12" font-weight="700" text-anchor="end" font-family="monospace">M</text>

  <!-- routes.ts -->
  <rect x="32" y="564" width="448" height="26" class="row-alt"/>
  <line x1="66" y1="564" x2="66" y2="590" class="indent"/>
  <line x1="94" y1="564" x2="94" y2="590" class="indent"/>
  <rect x="104" y="570" width="20" height="13" rx="2" fill="#519aba" opacity="0.2"/>
  <text x="114" y="579" fill="#519aba" font-size="8" font-weight="700" text-anchor="middle">TS</text>
  <text x="130" y="579" class="bright mono" font-size="12">routes.ts</text>
  <text x="260" y="579" class="muted" font-size="11">3 hours ago</text>
  <text x="456" y="579" class="yellow" font-size="12" font-weight="700" text-anchor="end" font-family="monospace">M</text>

  <!-- Yesterday -->
  <text x="94" y="606" class="accent" font-size="11" font-weight="600">Yesterday (2 files)</text>

  <!-- middleware.ts -->
  <rect x="32" y="612" width="448" height="26" fill="transparent"/>
  <line x1="66" y1="612" x2="66" y2="638" class="indent"/>
  <line x1="94" y1="612" x2="94" y2="638" class="indent"/>
  <rect x="104" y="618" width="20" height="13" rx="2" fill="#519aba" opacity="0.2"/>
  <text x="114" y="627" fill="#519aba" font-size="8" font-weight="700" text-anchor="middle">TS</text>
  <text x="130" y="627" class="bright mono" font-size="12">middleware.ts</text>
  <text x="260" y="627" class="muted" font-size="11">14 hours ago</text>
  <text x="456" y="627" class="green" font-size="12" font-weight="700" text-anchor="end" font-family="monospace">A</text>

  <!-- ═══════ Project 3: 📦 SHARED-LIB ═══════ -->
  <rect x="32" y="614" width="448" height="30" class="section-bg"/>
  <text x="44" y="634" font-size="16">📦</text>
  <text x="66" y="634" class="bright" font-size="14" font-weight="700">SHARED-LIB</text>
  <text x="164" y="634" class="muted" font-size="11">▼</text>
  <text x="184" y="634" class="muted" font-size="12">(2)</text>
  <!-- Launch Terminal Button -->
  <text x="456" y="634" class="accent" font-size="14" text-anchor="end">▶</text>
</svg>