<svg width="380" height="180" viewBox="0 0 380 180" xmlns="http://www.w3.org/2000/svg" role="img" aria-label="Project windows with unique emoji icons">
  <rect width="380" height="180" fill="#161b22"/>
  <rect x="50" y="18" width="280" height="100" rx="8" fill="#1c2128" stroke="#30363d"/>
  <rect x="50" y="18" width="280" height="28" rx="8" fill="#21262d"/>
  <rect x="50" y="38" width="280" height="8" fill="#21262d"/>
  <circle cx="66" cy="32" r="3" fill="#8b949e" opacity="0.7"/>
  <circle cx="78" cy="32" r="3" fill="#8b949e" opacity="0.45"/>
  <circle cx="90" cy="32" r="3" fill="#8b949e" opacity="0.25"/>
  <text x="112" y="36" fill="#e6edf3" font-family="'Space Grotesk', sans-serif" font-size="16" font-weight="500">🚀 My App</text>
  <text x="66" y="70" fill="#58a6ff" font-family="'Cascadia Code', monospace" font-size="14">$ npm run dev</text>
  <text x="66" y="91" fill="#8b949e" font-family="'Cascadia Code', monospace" font-size="12">ready on http://localhost:3000</text>

  <g transform="translate(34 128)">
    <rect width="92" height="36" rx="5" fill="#1c2128" stroke="#30363d"/>
    <rect width="92" height="12" rx="5" fill="#21262d"/>
    <rect y="7" width="92" height="5" fill="#21262d"/>
    <text x="10" y="24" fill="#e6edf3" font-family="'Space Grotesk', sans-serif" font-size="11" font-weight="500">🚀 My App</text>
  </g>
  <g transform="translate(144 128)">
    <rect width="92" height="36" rx="5" fill="#1c2128" stroke="#30363d"/>
    <rect width="92" height="12" rx="5" fill="#21262d"/>
    <rect y="7" width="92" height="5" fill="#21262d"/>
    <text x="10" y="24" fill="#e6edf3" font-family="'Space Grotesk', sans-serif" font-size="11" font-weight="500">⚡ API</text>
  </g>
  <g transform="translate(254 128)">
    <rect width="92" height="36" rx="5" fill="#1c2128" stroke="#30363d"/>
    <rect width="92" height="12" rx="5" fill="#21262d"/>
    <rect y="7" width="92" height="5" fill="#21262d"/>
    <text x="10" y="24" fill="#e6edf3" font-family="'Space Grotesk', sans-serif" font-size="11" font-weight="500">🔧 Tools</text>
  </g>

  <text x="190" y="175" text-anchor="middle" fill="#e6edf3" font-family="'Space Grotesk', sans-serif" font-size="14" font-weight="500">Each project gets its own window with a unique icon</text>
</svg>
