<svg xmlns="http://www.w3.org/2000/svg" viewBox="0 0 520 340" width="100%" height="auto">
  <defs>
    <style>
      .bg { fill: #1e1e1e; }
      .panel-bg { fill: #252526; }
      .section-bg { fill: #2d2d2d; }
      .row-alt { fill: #2a2a2a; opacity: 0.3; }
      .bright { fill: #cccccc; font-family: 'Segoe UI', system-ui, -apple-system, sans-serif; }
      .muted { fill: #858585; font-family: 'Segoe UI', system-ui, -apple-system, sans-serif; }
      .accent { fill: #4fc1ff; font-family: 'Segoe UI', system-ui, -apple-system, sans-serif; }
      .green { fill: #4ec9b0; }
      .yellow { fill: #dcdcaa; }
      .red { fill: #f14c4c; }
      .mono { font-family: 'Cascadia Code', 'Fira Code', 'Consolas', monospace; }
      .indent { stroke: #404040; stroke-width: 1; }
    </style>
  </defs>

  <!-- Background -->
  <rect width="520" height="340" class="bg" rx="6"/>

  <!-- Header: COMMAND CENTRAL -->
  <rect x="0" y="0" width="520" height="26" class="panel-bg" rx="6"/>
  <rect x="0" y="13" width="520" height="13" class="panel-bg"/>
  <text x="14" y="17" class="muted" font-size="10.5" font-weight="600" letter-spacing="1.2">COMMAND CENTRAL</text>
  <text x="506" y="17" class="muted" font-size="11" text-anchor="end">⋯</text>

  <!-- Extension Filter section -->
  <rect x="0" y="28" width="520" height="18" class="section-bg"/>
  <text x="14" y="40" class="muted" font-size="9" font-weight="600">▾ EXTENSION FILTER</text>
  <!-- filter icon -->
  <text x="504" y="40" class="muted" font-size="10" text-anchor="end">⊟</text>

  <!-- Filter: .json unchecked -->
  <rect x="14" y="50" width="12" height="12" rx="2" fill="none" stroke="#858585" stroke-width="1"/>
  <text x="20" y="64" class="muted" font-size="7" text-anchor="middle" font-family="system-ui">›</text>
  <text x="32" y="60" class="bright" font-size="9.5">.json (JSON)</text>
  <text x="116" y="60" class="muted" font-size="9">2 files</text>

  <!-- Filter: .ts checked (highlighted) -->
  <rect x="14" y="68" width="12" height="12" rx="2" fill="#4fc1ff" opacity="0.9"/>
  <text x="20" y="78" fill="#1e1e1e" font-size="9" font-weight="700" text-anchor="middle" font-family="system-ui">✓</text>
  <text x="32" y="78" class="bright" font-size="9.5" font-weight="500">.ts (TypeScript)</text>
  <text x="136" y="78" class="muted" font-size="9">10 files</text>

  <!-- Active filter indicator -->
  <rect x="14" y="88" width="160" height="16" rx="8" fill="#4fc1ff" opacity="0.1"/>
  <rect x="14" y="88" width="160" height="16" rx="8" fill="none" stroke="#4fc1ff" stroke-width="0.5" opacity="0.4"/>
  <text x="22" y="99" class="accent" font-size="8.5">⏏ Showing .ts only · 10 of 12 files</text>

  <!-- Workspace 1: 🚀 MY-APP -->
  <rect x="0" y="112" width="520" height="22" class="section-bg"/>
  <text x="10" y="126" font-size="12">🚀</text>
  <text x="26" y="127" class="bright" font-size="11" font-weight="600">MY-APP</text>
  <text x="80" y="127" class="muted" font-size="9">▼</text>
  <text x="92" y="127" class="muted" font-size="10">(6)</text>

  <!-- Today (3 files) -->
  <rect x="0" y="134" width="520" height="20" fill="transparent"/>
  <text x="24" y="147" class="accent" font-size="10" font-weight="600">▾ 📅 Today (3 files)</text>

  <!-- Row 1: App.ts -->
  <rect x="0" y="154" width="520" height="19" fill="transparent"/>
  <line x1="28" y1="154" x2="28" y2="173" class="indent"/>
  <rect x="38" y="157" width="16" height="12" rx="2" fill="#519aba" opacity="0.15"/>
  <text x="46" y="166" fill="#519aba" font-size="7.5" font-weight="700" font-family="system-ui" text-anchor="middle">TS</text>
  <text x="60" y="166.5" class="bright mono" font-size="10" font-weight="700">App.ts</text>
  <text x="104" y="166.5" class="muted" font-size="8.5">2 hours ago</text>
  <text x="185" y="166.5" class="muted" font-size="8.5">•</text>
  <text x="192" y="166.5" class="muted" font-size="8.5">my-app/src/components</text>
  <text x="508" y="166.5" class="yellow" font-size="9.5" font-weight="700" text-anchor="end" font-family="monospace">M</text>

  <!-- Row 2: index.ts -->
  <rect x="0" y="173" width="520" height="19" class="row-alt"/>
  <line x1="28" y1="173" x2="28" y2="192" class="indent"/>
  <rect x="38" y="176" width="16" height="12" rx="2" fill="#519aba" opacity="0.15"/>
  <text x="46" y="185" fill="#519aba" font-size="7.5" font-weight="700" font-family="system-ui" text-anchor="middle">TS</text>
  <text x="60" y="185.5" class="bright mono" font-size="10">index.ts</text>
  <text x="112" y="185.5" class="muted" font-size="8.5">3 hours ago</text>
  <text x="193" y="185.5" class="muted" font-size="8.5">•</text>
  <text x="200" y="185.5" class="muted" font-size="8.5">my-app/src</text>
  <text x="508" y="185.5" class="yellow" font-size="9.5" font-weight="700" text-anchor="end" font-family="monospace">M</text>

  <!-- Row 3: config.ts -->
  <rect x="0" y="192" width="520" height="19" fill="transparent"/>
  <line x1="28" y1="192" x2="28" y2="211" class="indent"/>
  <rect x="38" y="195" width="16" height="12" rx="2" fill="#519aba" opacity="0.15"/>
  <text x="46" y="204" fill="#519aba" font-size="7.5" font-weight="700" font-family="system-ui" text-anchor="middle">TS</text>
  <text x="60" y="204.5" class="bright mono" font-size="10">config.ts</text>
  <text x="120" y="204.5" class="muted" font-size="8.5">3 hours ago</text>
  <text x="201" y="204.5" class="muted" font-size="8.5">•</text>
  <text x="208" y="204.5" class="muted" font-size="8.5">my-app/src</text>
  <text x="508" y="204.5" class="green" font-size="9.5" font-weight="700" text-anchor="end" font-family="monospace">U</text>

  <!-- Yesterday (3 files) -->
  <rect x="0" y="211" width="520" height="20" fill="transparent"/>
  <text x="24" y="224" class="accent" font-size="10" font-weight="600">▾ 📅 Yesterday (3 files)</text>

  <!-- Row 4: utils.ts -->
  <rect x="0" y="231" width="520" height="19" fill="transparent"/>
  <line x1="28" y1="231" x2="28" y2="250" class="indent"/>
  <rect x="38" y="234" width="16" height="12" rx="2" fill="#519aba" opacity="0.15"/>
  <text x="46" y="243" fill="#519aba" font-size="7.5" font-weight="700" font-family="system-ui" text-anchor="middle">TS</text>
  <text x="60" y="243.5" class="bright mono" font-size="10">utils.ts</text>
  <text x="108" y="243.5" class="muted" font-size="8.5">13 hours ago</text>
  <text x="196" y="243.5" class="muted" font-size="8.5">•</text>
  <text x="203" y="243.5" class="muted" font-size="8.5">my-app/src</text>
  <text x="508" y="243.5" class="green" font-size="9.5" font-weight="700" text-anchor="end" font-family="monospace">U</text>

  <!-- Row 5: api.ts -->
  <rect x="0" y="250" width="520" height="19" class="row-alt"/>
  <line x1="28" y1="250" x2="28" y2="269" class="indent"/>
  <rect x="38" y="253" width="16" height="12" rx="2" fill="#519aba" opacity="0.15"/>
  <text x="46" y="262" fill="#519aba" font-size="7.5" font-weight="700" font-family="system-ui" text-anchor="middle">TS</text>
  <text x="60" y="262.5" class="bright mono" font-size="10">api.ts</text>
  <text x="94" y="262.5" class="muted" font-size="8.5">14 hours ago</text>
  <text x="182" y="262.5" class="muted" font-size="8.5">•</text>
  <text x="189" y="262.5" class="muted" font-size="8.5">my-app/src/services</text>
  <text x="508" y="262.5" class="green" font-size="9.5" font-weight="700" text-anchor="end" font-family="monospace">U</text>

  <!-- Workspace 2: ⚡ API-SERVER (collapsed) -->
  <rect x="0" y="278" width="520" height="22" class="section-bg"/>
  <text x="10" y="292" font-size="12">⚡</text>
  <text x="26" y="293" class="bright" font-size="11" font-weight="600">API-SERVER</text>
  <text x="100" y="293" class="muted" font-size="9">▼</text>
  <text x="112" y="293" class="muted" font-size="10">(4)</text>
  <text x="24" y="312" class="muted" font-size="9.5">▸ 📅 Yesterday (4 files)</text>

  <!-- Workspace 3: 📦 SHARED-LIB (collapsed) -->
  <rect x="0" y="320" width="520" height="19" class="section-bg"/>
  <text x="10" y="333" font-size="11">📦</text>
  <text x="26" y="333" class="muted" font-size="10.5" font-weight="600">▸ SHARED-LIB</text>
  <text x="110" y="333" class="muted" font-size="9">▼ (0 matching)</text>
</svg>
