<svg xmlns="http://www.w3.org/2000/svg" viewBox="0 0 400 320" width="100%" height="auto">
  <defs>
    <style>
      .bg { fill: #161b22; }
      .header-bar { fill: #21262d; }
      .section-bg { fill: #1c2128; }
      .row-alt { fill: #1c2128; opacity: 0.4; }
      .bright { fill: #e6edf3; font-family: system-ui, -apple-system, sans-serif; }
      .muted { fill: #8b949e; font-family: system-ui, -apple-system, sans-serif; }
      .accent { fill: #58a6ff; font-family: system-ui, -apple-system, sans-serif; }
      .green { fill: #3fb950; }
      .yellow { fill: #d29922; }
      .red { fill: #f85149; }
      .mono { font-family: 'Cascadia Code', 'Fira Code', Consolas, monospace; }
      .indent { stroke: #30363d; stroke-width: 1; }
    </style>
  </defs>

  <!-- Background -->
  <rect width="400" height="320" class="bg" rx="8"/>

  <!-- Header bar -->
  <rect x="0" y="0" width="400" height="32" class="header-bar" rx="8"/>
  <rect x="0" y="16" width="400" height="16" class="header-bar"/>
  <text x="16" y="21" class="muted" font-size="12" font-weight="700" letter-spacing="1.5">COMMAND CENTRAL</text>

  <!-- Filter bar -->
  <rect x="0" y="32" width="400" height="48" fill="#1c2128"/>
  <rect x="12" y="38" width="376" height="36" rx="6" fill="#58a6ff" opacity="0.12"/>
  <rect x="12" y="38" width="376" height="36" rx="6" fill="none" stroke="#58a6ff" stroke-width="1.5" opacity="0.6"/>
  <!-- Active filter badge -->
  <rect x="24" y="44" width="42" height="24" rx="12" fill="#58a6ff"/>
  <text x="45" y="61" fill="#161b22" font-size="13" font-weight="700" text-anchor="middle" font-family="system-ui">.ts</text>
  <!-- Filter description -->
  <text x="76" y="61" class="accent" font-size="13" font-weight="500">Showing 4 of 12 files</text>
  <!-- Clear button -->
  <text x="372" y="61" class="muted" font-size="13" text-anchor="end" font-weight="500">✕ Clear</text>

  <!-- Workspace header: MY-APP -->
  <rect x="0" y="80" width="400" height="30" class="section-bg"/>
  <text x="12" y="100" font-size="16">🚀</text>
  <text x="34" y="100" class="bright" font-size="14" font-weight="700">MY-APP</text>
  <text x="108" y="100" class="muted" font-size="12">(4 .ts files)</text>

  <!-- Today -->
  <text x="28" y="126" class="accent" font-size="13" font-weight="600">▾ Today</text>
  <text x="88" y="126" class="muted" font-size="12">(2 files)</text>

  <!-- Row: App.ts -->
  <rect x="0" y="134" width="400" height="30" fill="transparent"/>
  <line x1="34" y1="134" x2="34" y2="164" class="indent"/>
  <rect x="44" y="139" width="20" height="15" rx="3" fill="#519aba" opacity="0.2"/>
  <text x="54" y="150" fill="#519aba" font-size="9" font-weight="700" font-family="system-ui" text-anchor="middle">TS</text>
  <text x="72" y="153" class="bright mono" font-size="13" font-weight="700">App.ts</text>
  <text x="260" y="153" class="muted" font-size="12">2 hours ago</text>
  <text x="384" y="153" class="yellow" font-size="13" font-weight="700" text-anchor="end" font-family="monospace">M</text>

  <!-- Row: index.ts -->
  <rect x="0" y="164" width="400" height="30" class="row-alt"/>
  <line x1="34" y1="164" x2="34" y2="194" class="indent"/>
  <rect x="44" y="169" width="20" height="15" rx="3" fill="#519aba" opacity="0.2"/>
  <text x="54" y="180" fill="#519aba" font-size="9" font-weight="700" font-family="system-ui" text-anchor="middle">TS</text>
  <text x="72" y="183" class="bright mono" font-size="13" font-weight="700">index.ts</text>
  <text x="260" y="183" class="muted" font-size="12">3 hours ago</text>
  <text x="384" y="183" class="green" font-size="13" font-weight="700" text-anchor="end" font-family="monospace">U</text>

  <!-- Yesterday -->
  <text x="28" y="212" class="accent" font-size="13" font-weight="600">▾ Yesterday</text>
  <text x="112" y="212" class="muted" font-size="12">(2 files)</text>

  <!-- Row: utils.ts -->
  <rect x="0" y="220" width="400" height="30" fill="transparent"/>
  <line x1="34" y1="220" x2="34" y2="250" class="indent"/>
  <rect x="44" y="225" width="20" height="15" rx="3" fill="#519aba" opacity="0.2"/>
  <text x="54" y="236" fill="#519aba" font-size="9" font-weight="700" font-family="system-ui" text-anchor="middle">TS</text>
  <text x="72" y="239" class="bright mono" font-size="13" font-weight="700">utils.ts</text>
  <text x="260" y="239" class="muted" font-size="12">13 hours ago</text>
  <text x="384" y="239" class="yellow" font-size="13" font-weight="700" text-anchor="end" font-family="monospace">M</text>

  <!-- Row: api.ts -->
  <rect x="0" y="250" width="400" height="30" class="row-alt"/>
  <line x1="34" y1="250" x2="34" y2="280" class="indent"/>
  <rect x="44" y="255" width="20" height="15" rx="3" fill="#519aba" opacity="0.2"/>
  <text x="54" y="266" fill="#519aba" font-size="9" font-weight="700" font-family="system-ui" text-anchor="middle">TS</text>
  <text x="72" y="269" class="bright mono" font-size="13" font-weight="700">api.ts</text>
  <text x="260" y="269" class="muted" font-size="12">14 hours ago</text>
  <text x="384" y="269" class="green" font-size="13" font-weight="700" text-anchor="end" font-family="monospace">U</text>

  <!-- Collapsed workspace: API-SERVER -->
  <rect x="0" y="290" width="400" height="30" class="section-bg"/>
  <rect x="0" y="310" width="400" height="10" class="bg" rx="0"/>
  <text x="12" y="310" font-size="16" opacity="0.5">⚡</text>
  <text x="34" y="310" class="muted" font-size="14" font-weight="700" opacity="0.5">▸ API-SERVER</text>
  <text x="170" y="310" class="muted" font-size="11" opacity="0.4">(0 matching)</text>
</svg>