<svg xmlns="http://www.w3.org/2000/svg" viewBox="0 0 580 420" width="100%" height="auto">
  <defs>
    <style>
      .bg { fill: #1e1e1e; }
      .sidebar { fill: #252526; }
      .bright { fill: #e8e8e8; font-family: 'Segoe UI', system-ui, -apple-system, sans-serif; }
      .muted { fill: #858585; font-family: 'Segoe UI', system-ui, -apple-system, sans-serif; }
      .accent { fill: #569cd6; font-family: 'Segoe UI', system-ui, -apple-system, sans-serif; }
      .green { fill: #73c991; }
      .yellow { fill: #cca700; }
      .red { fill: #f14c4c; }
      .mono { font-family: 'Cascadia Code', 'Fira Code', Consolas, monospace; }
      .indent { stroke: #3c3c3c; stroke-width: 1; }
      .chevron { fill: #cccccc; font-family: system-ui; }
    </style>
  </defs>

  <!-- Background -->
  <rect width="580" height="420" class="bg" rx="8"/>

  <!-- Header bar -->
  <rect x="0" y="0" width="580" height="34" class="sidebar" rx="8"/>
  <rect x="0" y="16" width="580" height="18" class="sidebar"/>
  <text x="16" y="22" class="muted" font-size="11" font-weight="600" letter-spacing="1.2">COMMAND CENTRAL</text>

  <!-- â•â•â• Workspace: ðŸš€ MY-APP â•â•â• -->
  <rect x="0" y="38" width="580" height="32" fill="#2a2d2e"/>
  <text x="14" y="58" class="chevron" font-size="11">â–¾</text>
  <text x="28" y="59" font-size="15">ðŸš€</text>
  <text x="48" y="59" class="bright" font-size="14" font-weight="700">MY-APP</text>
  <text x="118" y="59" class="muted" font-size="11">â–¼</text>

  <!-- â•â•â• Staged section â•â•â• -->
  <rect x="0" y="74" width="580" height="32" fill="#73c991" opacity="0.07"/>
  <rect x="0" y="74" width="3" height="32" fill="#73c991"/>
  <!-- Staged icon: green box with + -->
  <text x="24" y="94" class="chevron" font-size="11">â–¾</text>
  <rect x="38" y="82" width="16" height="16" rx="3" fill="#73c991" opacity="0.25" stroke="#73c991" stroke-width="1" stroke-opacity="0.6"/>
  <text x="46" y="94" fill="#73c991" font-size="12" font-weight="700" text-anchor="middle">+</text>
  <text x="60" y="95" fill="#73c991" font-size="14" font-weight="700" font-family="'Segoe UI', system-ui, sans-serif">Staged</text>
  <text x="115" y="95" class="muted" font-size="12">Â· 2 ready to commit</text>

  <!-- Time group: Yesterday -->
  <text x="44" y="124" class="chevron" font-size="10">â–¾</text>
  <!-- Calendar icon -->
  <rect x="56" y="113" width="13" height="13" rx="2" fill="none" stroke="#569cd6" stroke-width="1.2"/>
  <line x1="56" y1="117" x2="69" y2="117" stroke="#569cd6" stroke-width="1"/>
  <text x="75" y="124" class="accent" font-size="12" font-weight="500">Yesterday</text>
  <text x="143" y="124" class="muted" font-size="11">(2 files)</text>

  <!-- Row 1: config.ts -->
  <rect x="0" y="132" width="580" height="30" fill="transparent"/>
  <line x1="50" y1="132" x2="50" y2="162" class="indent"/>
  <rect x="62" y="138" width="22" height="16" rx="3" fill="#519aba" opacity="0.2"/>
  <text x="73" y="150" fill="#519aba" font-size="9.5" font-weight="700" font-family="system-ui" text-anchor="middle">TS</text>
  <text x="92" y="151" class="bright mono" font-size="13" font-weight="600">config.ts</text>
  <text x="192" y="151" class="muted" font-size="11">13 hours ago Â· my-app/src</text>
  <text x="556" y="151" class="green" font-size="13" font-weight="700" text-anchor="end" font-family="monospace">A</text>

  <!-- Row 2: settings.json -->
  <rect x="0" y="162" width="580" height="30" fill="#ffffff" opacity="0.02"/>
  <line x1="50" y1="162" x2="50" y2="192" class="indent"/>
  <rect x="62" y="168" width="22" height="16" rx="3" fill="#cbcb41" opacity="0.2"/>
  <text x="73" y="180" fill="#cbcb41" font-size="10" font-weight="500" font-family="system-ui" text-anchor="middle">{}</text>
  <text x="92" y="181" class="bright mono" font-size="13" font-weight="600">settings.json</text>
  <text x="218" y="181" class="muted" font-size="11">14 hours ago Â· my-app/.vscode</text>
  <text x="556" y="181" class="green" font-size="13" font-weight="700" text-anchor="end" font-family="monospace">A</text>

  <!-- â•â•â• Working section â•â•â• -->
  <rect x="0" y="200" width="580" height="32" fill="#cca700" opacity="0.07"/>
  <rect x="0" y="200" width="3" height="32" fill="#cca700"/>
  <!-- Working icon: yellow circle -->
  <text x="24" y="220" class="chevron" font-size="11">â–¾</text>
  <circle cx="46" cy="216" r="7" fill="#cca700" opacity="0.3" stroke="#cca700" stroke-width="1.2"/>
  <circle cx="46" cy="216" r="3" fill="#cca700"/>
  <text x="60" y="221" fill="#cca700" font-size="14" font-weight="700" font-family="'Segoe UI', system-ui, sans-serif">Working</text>
  <text x="124" y="221" class="muted" font-size="12">Â· 4 files changed</text>

  <!-- Time group: Yesterday -->
  <text x="44" y="250" class="chevron" font-size="10">â–¾</text>
  <rect x="56" y="239" width="13" height="13" rx="2" fill="none" stroke="#569cd6" stroke-width="1.2"/>
  <line x1="56" y1="243" x2="69" y2="243" stroke="#569cd6" stroke-width="1"/>
  <text x="75" y="250" class="accent" font-size="12" font-weight="500">Yesterday</text>
  <text x="143" y="250" class="muted" font-size="11">(4 files)</text>

  <!-- Row 3: App.ts -->
  <rect x="0" y="258" width="580" height="30" fill="transparent"/>
  <line x1="50" y1="258" x2="50" y2="288" class="indent"/>
  <rect x="62" y="264" width="22" height="16" rx="3" fill="#519aba" opacity="0.2"/>
  <text x="73" y="276" fill="#519aba" font-size="9.5" font-weight="700" font-family="system-ui" text-anchor="middle">TS</text>
  <text x="92" y="277" class="bright mono" font-size="13" font-weight="600">App.ts</text>
  <text x="172" y="277" class="muted" font-size="11">13 hours ago Â· my-app/src/components</text>
  <text x="556" y="277" class="yellow" font-size="13" font-weight="700" text-anchor="end" font-family="monospace">M</text>

  <!-- Row 4: index.ts (CONFLICT - red) -->
  <rect x="0" y="288" width="580" height="30" fill="#f14c4c" opacity="0.06"/>
  <line x1="50" y1="288" x2="50" y2="318" class="indent"/>
  <rect x="62" y="294" width="22" height="16" rx="3" fill="#519aba" opacity="0.2"/>
  <text x="73" y="306" fill="#519aba" font-size="9.5" font-weight="700" font-family="system-ui" text-anchor="middle">TS</text>
  <text x="92" y="307" fill="#f14c4c" font-size="13" font-weight="700" font-family="'Cascadia Code', 'Fira Code', Consolas, monospace">index.ts</text>
  <text x="172" y="307" class="muted" font-size="11">13 hours ago Â· my-app/src</text>
  <text x="556" y="307" class="red" font-size="13" font-weight="700" text-anchor="end" font-family="monospace">4, M</text>

  <!-- Row 5: utils.ts -->
  <rect x="0" y="318" width="580" height="30" fill="transparent"/>
  <line x1="50" y1="318" x2="50" y2="348" class="indent"/>
  <rect x="62" y="324" width="22" height="16" rx="3" fill="#519aba" opacity="0.2"/>
  <text x="73" y="336" fill="#519aba" font-size="9.5" font-weight="700" font-family="system-ui" text-anchor="middle">TS</text>
  <text x="92" y="337" class="bright mono" font-size="13" font-weight="600">utils.ts</text>
  <text x="172" y="337" class="muted" font-size="11">13 hours ago Â· my-app/src</text>
  <text x="556" y="337" class="green" font-size="13" font-weight="700" text-anchor="end" font-family="monospace">U</text>
</svg>