<svg xmlns="http://www.w3.org/2000/svg" viewBox="0 0 480 400" font-family="system-ui, -apple-system, sans-serif">
  <defs>
    <style>
      .mono { font-family: 'Cascadia Code', 'Fira Code', Consolas, monospace; }
      .bold { font-weight: 700; }
    </style>
  </defs>

  <rect width="480" height="400" fill="#1E1E1E" rx="6"/>

  <!-- Panel header -->
  <rect x="0" y="0" width="480" height="32" fill="#252526" rx="6"/>
  <rect x="0" y="16" width="480" height="16" fill="#252526"/>
  <text x="16" y="21" font-size="11" fill="#CCCCCC" letter-spacing="0.5" font-weight="600">COMMAND CENTRAL</text>
  <text x="464" y="21" font-size="13" fill="#888888" text-anchor="end">⋯</text>

  <!-- Workspace header -->
  <rect x="0" y="36" width="480" height="26" fill="#2D2D2D"/>
  <g transform="translate(12, 42)">
    <text x="0" y="14" font-size="11" fill="#E0E0E0">▾</text>
    <text x="16" y="14" font-size="13">🚀</text>
    <text x="34" y="14" font-size="12" fill="#FFFFFF" class="bold">MY-APP</text>
    <text x="86" y="14" font-size="9" fill="#888888">▼</text>
  </g>

  <!-- Vertical guide from workspace -->
  <line x1="28" y1="66" x2="28" y2="374" stroke="#404040" stroke-width="1"/>

  <!-- STAGED section -->
  <g transform="translate(34, 72)">
    <rect x="0" y="1" width="14" height="14" rx="2" fill="#2EA04366" stroke="#73C991" stroke-width="1"/>
    <text x="7" y="12" font-size="10" fill="#73C991" text-anchor="middle" class="bold">+</text>
    <text x="20" y="12" font-size="11.5" fill="#73C991" class="bold">Staged</text>
    <text x="64" y="12" font-size="11" fill="#888888">· 2 ready to commit</text>
  </g>

  <line x1="42" y1="92" x2="42" y2="170" stroke="#404040" stroke-width="1"/>

  <!-- Time group: Yesterday -->
  <g transform="translate(48, 96)">
    <text x="0" y="14" font-size="11" fill="#E0E0E0">▾</text>
    <text x="16" y="14" font-size="12">📅</text>
    <text x="32" y="14" font-size="11.5" fill="#E0E0E0">Yesterday</text>
    <text x="96" y="14" font-size="11" fill="#888888">(2 files)</text>
  </g>

  <line x1="58" y1="116" x2="58" y2="166" stroke="#404040" stroke-width="1"/>

  <!-- COLUMN LAYOUT (relative to g@66): timestamp@150 dot@226 path@234 git@396(end) -->

  <!-- Staged file 1: Dialog.tsx -->
  <g transform="translate(66, 120)">
    <rect x="0" y="0" width="18" height="16" rx="2" fill="#3C7A8A"/>
    <text x="9" y="12" font-size="8" fill="#E0E0E0" text-anchor="middle" class="mono bold">TS</text>
    <text x="24" y="12" font-size="11.5" fill="#73C991" class="mono bold">Dialog.tsx</text>
    <text x="150" y="12" font-size="10" fill="#888888">18 hours ago</text>
    <text x="226" y="12" font-size="10" fill="#666666">·</text>
    <text x="234" y="12" font-size="10" fill="#888888">src/components</text>
    <text x="396" y="12" font-size="11" fill="#73C991" class="mono" text-anchor="end">A</text>
  </g>

  <!-- Staged file 2: routes.ts -->
  <g transform="translate(66, 146)">
    <rect x="0" y="0" width="18" height="16" rx="2" fill="#3C7A8A"/>
    <text x="9" y="12" font-size="8" fill="#E0E0E0" text-anchor="middle" class="mono bold">TS</text>
    <text x="24" y="12" font-size="11.5" fill="#73C991" class="mono bold">routes.ts</text>
    <text x="150" y="12" font-size="10" fill="#888888">20 hours ago</text>
    <text x="226" y="12" font-size="10" fill="#666666">·</text>
    <text x="234" y="12" font-size="10" fill="#888888">src/api</text>
    <text x="396" y="12" font-size="11" fill="#73C991" class="mono" text-anchor="end">A</text>
  </g>

  <!-- Separator -->
  <line x1="34" y1="178" x2="460" y2="178" stroke="#333333" stroke-width="0.5"/>

  <!-- WORKING section -->
  <g transform="translate(34, 188)">
    <circle cx="7" cy="8" r="7" fill="#E8AB5222" stroke="#D7BA7D" stroke-width="1.2"/>
    <circle cx="7" cy="8" r="3" fill="#D7BA7D"/>
    <text x="20" y="12" font-size="11.5" fill="#D7BA7D" class="bold">Working</text>
    <text x="72" y="12" font-size="11" fill="#888888">· 4 files changed</text>
  </g>

  <line x1="42" y1="208" x2="42" y2="370" stroke="#404040" stroke-width="1"/>

  <!-- Time group: Yesterday -->
  <g transform="translate(48, 212)">
    <text x="0" y="14" font-size="11" fill="#E0E0E0">▾</text>
    <text x="16" y="14" font-size="12">📅</text>
    <text x="32" y="14" font-size="11.5" fill="#E0E0E0">Yesterday</text>
    <text x="96" y="14" font-size="11" fill="#888888">(4 files)</text>
  </g>

  <line x1="58" y1="232" x2="58" y2="362" stroke="#404040" stroke-width="1"/>

  <!-- Working file 1: App.tsx -->
  <g transform="translate(66, 236)">
    <rect x="0" y="0" width="18" height="16" rx="2" fill="#3C7A8A"/>
    <text x="9" y="12" font-size="8" fill="#E0E0E0" text-anchor="middle" class="mono bold">TS</text>
    <text x="24" y="12" font-size="11.5" fill="#E0E0E0" class="mono bold">App.tsx</text>
    <text x="150" y="12" font-size="10" fill="#888888">13 hours ago</text>
    <text x="226" y="12" font-size="10" fill="#666666">·</text>
    <text x="234" y="12" font-size="10" fill="#888888">src/components</text>
    <text x="396" y="12" font-size="11" fill="#D7BA7D" class="mono" text-anchor="end">M</text>
  </g>

  <!-- Working file 2: Header.tsx -->
  <g transform="translate(66, 262)">
    <rect x="0" y="0" width="18" height="16" rx="2" fill="#3C7A8A"/>
    <text x="9" y="12" font-size="8" fill="#E0E0E0" text-anchor="middle" class="mono bold">TS</text>
    <text x="24" y="12" font-size="11.5" fill="#E0E0E0" class="mono bold">Header.tsx</text>
    <text x="150" y="12" font-size="10" fill="#888888">14 hours ago</text>
    <text x="226" y="12" font-size="10" fill="#666666">·</text>
    <text x="234" y="12" font-size="10" fill="#888888">src/components</text>
    <text x="396" y="12" font-size="11" fill="#D7BA7D" class="mono" text-anchor="end">M</text>
  </g>

  <!-- Working file 3: package.json -->
  <g transform="translate(66, 288)">
    <rect x="0" y="0" width="18" height="16" rx="2" fill="#C8963E"/>
    <text x="9" y="12" font-size="8" fill="#1E1E1E" text-anchor="middle" class="mono bold">{}</text>
    <text x="24" y="12" font-size="11.5" fill="#E0E0E0" class="mono bold">package.json</text>
    <text x="150" y="12" font-size="10" fill="#888888">16 hours ago</text>
    <text x="226" y="12" font-size="10" fill="#666666">·</text>
    <text x="234" y="12" font-size="10" fill="#888888">root</text>
    <text x="396" y="12" font-size="11" fill="#D7BA7D" class="mono" text-anchor="end">M</text>
  </g>

  <!-- Working file 4: logger.ts (untracked) -->
  <g transform="translate(66, 314)">
    <rect x="0" y="0" width="18" height="16" rx="2" fill="#3C7A8A"/>
    <text x="9" y="12" font-size="8" fill="#E0E0E0" text-anchor="middle" class="mono bold">TS</text>
    <text x="24" y="12" font-size="11.5" fill="#73C991" class="mono bold">logger.ts</text>
    <text x="150" y="12" font-size="10" fill="#888888">19 hours ago</text>
    <text x="226" y="12" font-size="10" fill="#666666">·</text>
    <text x="234" y="12" font-size="10" fill="#888888">src/utils</text>
    <text x="396" y="12" font-size="11" fill="#73C991" class="mono" text-anchor="end">U</text>
  </g>
</svg>
