<svg xmlns="http://www.w3.org/2000/svg" viewBox="0 0 520 480" width="100%" height="auto">
  <defs>
    <style>
      .bg { fill: #1e1e1e; }
      .panel-bg { fill: #252526; }
      .section-bg { fill: #2d2d2d; }
      .row-alt { fill: #2a2a2a; opacity: 0.3; }
      .bright { fill: #cccccc; font-family: 'Segoe UI', system-ui, -apple-system, sans-serif; }
      .muted { fill: #858585; font-family: 'Segoe UI', system-ui, -apple-system, sans-serif; }
      .accent { fill: #4fc1ff; font-family: 'Segoe UI', system-ui, -apple-system, sans-serif; }
      .green { fill: #4ec9b0; }
      .yellow { fill: #dcdcaa; }
      .red { fill: #f14c4c; }
      .orange { fill: #ce9178; }
      .mono { font-family: 'Cascadia Code', 'Fira Code', 'Consolas', monospace; }
      .ts-badge { fill: #519aba; }
      .json-badge { fill: #cbcb41; }
      .indent { stroke: #404040; stroke-width: 1; }
    </style>
  </defs>

  <!-- Background -->
  <rect width="520" height="480" class="bg" rx="6"/>

  <!-- Header: COMMAND CENTRAL -->
  <rect x="0" y="0" width="520" height="26" class="panel-bg" rx="6"/>
  <rect x="0" y="13" width="520" height="13" class="panel-bg"/>
  <text x="14" y="17" class="muted" font-size="10.5" font-weight="600" letter-spacing="1.2">COMMAND CENTRAL</text>
  <text x="506" y="17" class="muted" font-size="11" text-anchor="end">⋯</text>

  <!-- Workspace 1: 🚀 MY-APP -->
  <rect x="0" y="30" width="520" height="22" class="section-bg"/>
  <text x="10" y="44" font-size="12">🚀</text>
  <text x="26" y="45" class="bright" font-size="11" font-weight="600">MY-APP</text>
  <text x="80" y="45" class="muted" font-size="9">▼</text>
  <text x="92" y="45" class="muted" font-size="10">(6)</text>

  <!-- Time group: Today (3 files) -->
  <rect x="0" y="52" width="520" height="20" fill="transparent"/>
  <text x="24" y="65" class="accent" font-size="10" font-weight="600">▾ 📅 Today (3 files)</text>

  <!-- Row 1: App.ts - bold, active highlight -->
  <rect x="0" y="72" width="520" height="19" fill="transparent"/>
  <line x1="28" y1="72" x2="28" y2="91" class="indent"/>
  <rect x="38" y="75" width="16" height="12" rx="2" fill="#519aba" opacity="0.15"/>
  <text x="46" y="84" fill="#519aba" font-size="7.5" font-weight="700" font-family="system-ui" text-anchor="middle">TS</text>
  <text x="60" y="84.5" class="bright mono" font-size="10" font-weight="700">App.ts</text>
  <text x="104" y="84.5" class="muted" font-size="8.5">2 hours ago</text>
  <text x="185" y="84.5" class="muted" font-size="8.5">•</text>
  <text x="192" y="84.5" class="muted" font-size="8.5">my-app/src/components</text>
  <text x="508" y="84.5" class="yellow" font-size="9.5" font-weight="700" text-anchor="end" font-family="monospace">M</text>

  <!-- Row 2: index.ts - active file (red) -->
  <rect x="0" y="91" width="520" height="19" class="row-alt"/>
  <line x1="28" y1="91" x2="28" y2="110" class="indent"/>
  <rect x="38" y="94" width="16" height="12" rx="2" fill="#519aba" opacity="0.15"/>
  <text x="46" y="103" fill="#519aba" font-size="7.5" font-weight="700" font-family="system-ui" text-anchor="middle">TS</text>
  <text x="60" y="103.5" fill="#f14c4c" font-size="10" font-weight="700" font-family="'Cascadia Code', monospace">index.ts</text>
  <text x="118" y="103.5" class="muted" font-size="8.5">3 hours ago</text>
  <text x="199" y="103.5" class="muted" font-size="8.5">•</text>
  <text x="206" y="103.5" class="muted" font-size="8.5">my-app/src</text>
  <text x="508" y="103.5" class="red" font-size="9.5" font-weight="700" text-anchor="end" font-family="monospace">4, M</text>

  <!-- Row 3: config.ts -->
  <rect x="0" y="110" width="520" height="19" fill="transparent"/>
  <line x1="28" y1="110" x2="28" y2="129" class="indent"/>
  <rect x="38" y="113" width="16" height="12" rx="2" fill="#519aba" opacity="0.15"/>
  <text x="46" y="122" fill="#519aba" font-size="7.5" font-weight="700" font-family="system-ui" text-anchor="middle">TS</text>
  <text x="60" y="122.5" class="bright mono" font-size="10">config.ts</text>
  <text x="120" y="122.5" class="muted" font-size="8.5">3 hours ago</text>
  <text x="201" y="122.5" class="muted" font-size="8.5">•</text>
  <text x="208" y="122.5" class="muted" font-size="8.5">my-app/src</text>
  <text x="508" y="122.5" class="green" font-size="9.5" font-weight="700" text-anchor="end" font-family="monospace">U</text>

  <!-- Time group: Yesterday (3 files) -->
  <rect x="0" y="129" width="520" height="20" fill="transparent"/>
  <text x="24" y="142" class="accent" font-size="10" font-weight="600">▾ 📅 Yesterday (3 files)</text>

  <!-- Row 4: utils.ts -->
  <rect x="0" y="149" width="520" height="19" fill="transparent"/>
  <line x1="28" y1="149" x2="28" y2="168" class="indent"/>
  <rect x="38" y="152" width="16" height="12" rx="2" fill="#519aba" opacity="0.15"/>
  <text x="46" y="161" fill="#519aba" font-size="7.5" font-weight="700" font-family="system-ui" text-anchor="middle">TS</text>
  <text x="60" y="161.5" class="bright mono" font-size="10">utils.ts</text>
  <text x="108" y="161.5" class="muted" font-size="8.5">13 hours ago</text>
  <text x="196" y="161.5" class="muted" font-size="8.5">•</text>
  <text x="203" y="161.5" class="muted" font-size="8.5">my-app/src</text>
  <text x="508" y="161.5" class="green" font-size="9.5" font-weight="700" text-anchor="end" font-family="monospace">U</text>

  <!-- Row 5: settings.json -->
  <rect x="0" y="168" width="520" height="19" class="row-alt"/>
  <line x1="28" y1="168" x2="28" y2="187" class="indent"/>
  <rect x="38" y="171" width="16" height="12" rx="2" fill="#cbcb41" opacity="0.15"/>
  <text x="46" y="180" fill="#cbcb41" font-size="8" font-weight="400" font-family="system-ui" text-anchor="middle">{}</text>
  <text x="60" y="180.5" class="bright mono" font-size="10">settings.json</text>
  <text x="142" y="180.5" class="muted" font-size="8.5">14 hours ago</text>
  <text x="230" y="180.5" class="muted" font-size="8.5">•</text>
  <text x="237" y="180.5" class="muted" font-size="8.5">my-app/.vscode</text>
  <text x="508" y="180.5" class="green" font-size="9.5" font-weight="700" text-anchor="end" font-family="monospace">U</text>

  <!-- Row 6: api.ts -->
  <rect x="0" y="187" width="520" height="19" fill="transparent"/>
  <line x1="28" y1="187" x2="28" y2="206" class="indent"/>
  <rect x="38" y="190" width="16" height="12" rx="2" fill="#519aba" opacity="0.15"/>
  <text x="46" y="199" fill="#519aba" font-size="7.5" font-weight="700" font-family="system-ui" text-anchor="middle">TS</text>
  <text x="60" y="199.5" class="bright mono" font-size="10">api.ts</text>
  <text x="94" y="199.5" class="muted" font-size="8.5">14 hours ago</text>
  <text x="182" y="199.5" class="muted" font-size="8.5">•</text>
  <text x="189" y="199.5" class="muted" font-size="8.5">my-app/src/services</text>
  <text x="508" y="199.5" class="green" font-size="9.5" font-weight="700" text-anchor="end" font-family="monospace">U</text>

  <!-- Workspace 2: ⚡ API-SERVER -->
  <rect x="0" y="214" width="520" height="22" class="section-bg"/>
  <text x="10" y="228" font-size="12">⚡</text>
  <text x="26" y="229" class="bright" font-size="11" font-weight="600">API-SERVER</text>
  <text x="100" y="229" class="muted" font-size="9">▼</text>
  <text x="112" y="229" class="muted" font-size="10">(5)</text>

  <!-- Time group: Yesterday (5 files) -->
  <rect x="0" y="236" width="520" height="20" fill="transparent"/>
  <text x="24" y="249" class="accent" font-size="10" font-weight="600">▾ 📅 Yesterday (5 files)</text>

  <!-- Row 7: server.ts -->
  <rect x="0" y="256" width="520" height="19" fill="transparent"/>
  <line x1="28" y1="256" x2="28" y2="275" class="indent"/>
  <rect x="38" y="259" width="16" height="12" rx="2" fill="#519aba" opacity="0.15"/>
  <text x="46" y="268" fill="#519aba" font-size="7.5" font-weight="700" font-family="system-ui" text-anchor="middle">TS</text>
  <text x="60" y="268.5" class="bright mono" font-size="10" font-weight="700">server.ts</text>
  <text x="118" y="268.5" class="muted" font-size="8.5">12 hours ago</text>
  <text x="206" y="268.5" class="muted" font-size="8.5">•</text>
  <text x="213" y="268.5" class="muted" font-size="8.5">api-server/src</text>
  <text x="508" y="268.5" class="yellow" font-size="9.5" font-weight="700" text-anchor="end" font-family="monospace">M</text>

  <!-- Row 8: config.ts -->
  <rect x="0" y="275" width="520" height="19" class="row-alt"/>
  <line x1="28" y1="275" x2="28" y2="294" class="indent"/>
  <rect x="38" y="278" width="16" height="12" rx="2" fill="#519aba" opacity="0.15"/>
  <text x="46" y="287" fill="#519aba" font-size="7.5" font-weight="700" font-family="system-ui" text-anchor="middle">TS</text>
  <text x="60" y="287.5" class="bright mono" font-size="10">config.ts</text>
  <text x="120" y="287.5" class="muted" font-size="8.5">12 hours ago</text>
  <text x="208" y="287.5" class="muted" font-size="8.5">•</text>
  <text x="215" y="287.5" class="muted" font-size="8.5">api-server/src</text>
  <text x="508" y="287.5" class="green" font-size="9.5" font-weight="700" text-anchor="end" font-family="monospace">U</text>

  <!-- Row 9: auth.ts -->
  <rect x="0" y="294" width="520" height="19" fill="transparent"/>
  <line x1="28" y1="294" x2="28" y2="313" class="indent"/>
  <rect x="38" y="297" width="16" height="12" rx="2" fill="#519aba" opacity="0.15"/>
  <text x="46" y="306" fill="#519aba" font-size="7.5" font-weight="700" font-family="system-ui" text-anchor="middle">TS</text>
  <text x="60" y="306.5" class="bright mono" font-size="10">auth.ts</text>
  <text x="100" y="306.5" class="muted" font-size="8.5">12 hours ago</text>
  <text x="188" y="306.5" class="muted" font-size="8.5">•</text>
  <text x="195" y="306.5" class="muted" font-size="8.5">api-server/src/middleware</text>
  <text x="508" y="306.5" class="yellow" font-size="9.5" font-weight="700" text-anchor="end" font-family="monospace">M</text>

  <!-- Row 10: settings.json -->
  <rect x="0" y="313" width="520" height="19" class="row-alt"/>
  <line x1="28" y1="313" x2="28" y2="332" class="indent"/>
  <rect x="38" y="316" width="16" height="12" rx="2" fill="#cbcb41" opacity="0.15"/>
  <text x="46" y="325" fill="#cbcb41" font-size="8" font-weight="400" font-family="system-ui" text-anchor="middle">{}</text>
  <text x="60" y="325.5" class="bright mono" font-size="10">settings.json</text>
  <text x="142" y="325.5" class="muted" font-size="8.5">12 hours ago</text>
  <text x="230" y="325.5" class="muted" font-size="8.5">•</text>
  <text x="237" y="325.5" class="muted" font-size="8.5">api-server/.vscode</text>
  <text x="508" y="325.5" class="green" font-size="9.5" font-weight="700" text-anchor="end" font-family="monospace">U</text>

  <!-- Row 11: posts.ts -->
  <rect x="0" y="332" width="520" height="19" fill="transparent"/>
  <line x1="28" y1="332" x2="28" y2="351" class="indent"/>
  <rect x="38" y="335" width="16" height="12" rx="2" fill="#519aba" opacity="0.15"/>
  <text x="46" y="344" fill="#519aba" font-size="7.5" font-weight="700" font-family="system-ui" text-anchor="middle">TS</text>
  <text x="60" y="344.5" class="bright mono" font-size="10">posts.ts</text>
  <text x="108" y="344.5" class="muted" font-size="8.5">12 hours ago</text>
  <text x="196" y="344.5" class="muted" font-size="8.5">•</text>
  <text x="203" y="344.5" class="muted" font-size="8.5">api-server/src/routes</text>
  <text x="508" y="344.5" class="green" font-size="9.5" font-weight="700" text-anchor="end" font-family="monospace">U</text>

  <!-- Workspace 3: 📦 SHARED-LIB -->
  <rect x="0" y="358" width="520" height="22" class="section-bg"/>
  <text x="10" y="372" font-size="12">📦</text>
  <text x="26" y="373" class="bright" font-size="11" font-weight="600">SHARED-LIB</text>
  <text x="102" y="373" class="muted" font-size="9">▼</text>
  <text x="114" y="373" class="muted" font-size="10">(1)</text>

  <!-- Time group: Yesterday (1 file) -->
  <rect x="0" y="380" width="520" height="20" fill="transparent"/>
  <text x="24" y="393" class="accent" font-size="10" font-weight="600">▾ 📅 Yesterday (1 file)</text>

  <!-- Row 12: utils.ts -->
  <rect x="0" y="400" width="520" height="19" fill="transparent"/>
  <line x1="28" y1="400" x2="28" y2="419" class="indent"/>
  <rect x="38" y="403" width="16" height="12" rx="2" fill="#519aba" opacity="0.15"/>
  <text x="46" y="412" fill="#519aba" font-size="7.5" font-weight="700" font-family="system-ui" text-anchor="middle">TS</text>
  <text x="60" y="412.5" class="bright mono" font-size="10">utils.ts</text>
  <text x="108" y="412.5" class="muted" font-size="8.5">12 hours ago</text>
  <text x="196" y="412.5" class="muted" font-size="8.5">•</text>
  <text x="203" y="412.5" class="muted" font-size="8.5">shared-lib/src</text>
  <text x="508" y="412.5" class="yellow" font-size="9.5" font-weight="700" text-anchor="end" font-family="monospace">M</text>
</svg>
