<svg xmlns="http://www.w3.org/2000/svg" viewBox="0 0 520 520" font-family="system-ui, -apple-system, sans-serif">
  <defs>
    <style>
      .mono { font-family: 'Cascadia Code', 'Fira Code', Consolas, monospace; }
      .bold { font-weight: 700; }
    </style>
  </defs>

  <rect width="520" height="520" fill="#1E1E1E" rx="6"/>

  <!-- Panel header -->
  <rect x="0" y="0" width="520" height="32" fill="#252526" rx="6"/>
  <rect x="0" y="16" width="520" height="16" fill="#252526"/>
  <text x="16" y="21" font-size="11" fill="#CCCCCC" letter-spacing="0.5" font-weight="600">COMMAND CENTRAL</text>
  <text x="504" y="21" font-size="13" fill="#888888" text-anchor="end">â‹¯</text>

  <!-- â•â•â•â•â•â•â• Workspace 1: MY-APP â•â•â•â•â•â•â• -->
  <rect x="0" y="36" width="520" height="26" fill="#2D2D2D"/>
  <g transform="translate(12, 42)">
    <text x="0" y="14" font-size="11" fill="#E0E0E0">â–¾</text>
    <text x="16" y="14" font-size="14">ðŸš€</text>
    <text x="34" y="14" font-size="13" fill="#FFFFFF" class="bold">MY-APP</text>
    <text x="96" y="14" font-size="9" fill="#888888">â–¼</text>
    <text x="108" y="14" font-size="11" fill="#888888">(6)</text>
  </g>

  <!-- Vertical guide -->
  <line x1="28" y1="66" x2="28" y2="290" stroke="#404040" stroke-width="1"/>

  <!-- Today (expanded) -->
  <g transform="translate(34, 72)">
    <text x="0" y="14" font-size="11" fill="#E0E0E0">â–¾</text>
    <text x="16" y="14" font-size="12">ðŸ“…</text>
    <text x="32" y="14" font-size="12" fill="#E0E0E0">Today</text>
    <text x="72" y="14" font-size="11" fill="#888888">(2 files)</text>
  </g>

  <!-- Vertical guide for files -->
  <line x1="46" y1="92" x2="46" y2="148" stroke="#404040" stroke-width="1"/>

  <!-- COLUMN LAYOUT: badge@54 filename@80 timestamp@240 dot@314 path@322 git@498(end) -->

  <!-- File: App.ts -->
  <g transform="translate(54, 96)">
    <rect x="0" y="0" width="20" height="16" rx="3" fill="#3C7A8A"/>
    <text x="10" y="12" font-size="8.5" fill="#E0E0E0" text-anchor="middle" class="mono bold">TS</text>
    <text x="26" y="12" font-size="12" fill="#E0E0E0" class="mono bold">App.ts</text>
    <text x="186" y="12" font-size="10.5" fill="#888888">2 hours ago</text>
    <text x="260" y="12" font-size="10.5" fill="#555555">Â·</text>
    <text x="270" y="12" font-size="10.5" fill="#888888">my-app/src/components</text>
    <text x="448" y="12" font-size="12" fill="#D7BA7D" class="mono" text-anchor="end">M</text>
  </g>

  <!-- File: index.ts (error) -->
  <g transform="translate(54, 122)">
    <rect x="0" y="0" width="20" height="16" rx="3" fill="#3C7A8A"/>
    <text x="10" y="12" font-size="8.5" fill="#E0E0E0" text-anchor="middle" class="mono bold">TS</text>
    <text x="26" y="12" font-size="12" fill="#F44747" class="mono bold">index.ts</text>
    <text x="186" y="12" font-size="10.5" fill="#888888">3 hours ago</text>
    <text x="260" y="12" font-size="10.5" fill="#555555">Â·</text>
    <text x="270" y="12" font-size="10.5" fill="#888888">my-app/src</text>
    <text x="448" y="12" font-size="12" fill="#F44747" class="mono" text-anchor="end">4, M</text>
  </g>

  <!-- Yesterday (expanded) -->
  <g transform="translate(34, 154)">
    <text x="0" y="14" font-size="11" fill="#E0E0E0">â–¾</text>
    <text x="16" y="14" font-size="12">ðŸ“…</text>
    <text x="32" y="14" font-size="12" fill="#E0E0E0">Yesterday</text>
    <text x="100" y="14" font-size="11" fill="#888888">(4 files)</text>
  </g>

  <line x1="46" y1="174" x2="46" y2="282" stroke="#404040" stroke-width="1"/>

  <!-- File: config.ts (untracked) -->
  <g transform="translate(54, 178)">
    <rect x="0" y="0" width="20" height="16" rx="3" fill="#3C7A8A"/>
    <text x="10" y="12" font-size="8.5" fill="#E0E0E0" text-anchor="middle" class="mono bold">TS</text>
    <text x="26" y="12" font-size="12" fill="#73C991" class="mono bold">config.ts</text>
    <text x="186" y="12" font-size="10.5" fill="#888888">13 hours ago</text>
    <text x="260" y="12" font-size="10.5" fill="#555555">Â·</text>
    <text x="270" y="12" font-size="10.5" fill="#888888">my-app/src</text>
    <text x="448" y="12" font-size="12" fill="#73C991" class="mono" text-anchor="end">U</text>
  </g>

  <!-- File: utils.ts (untracked) -->
  <g transform="translate(54, 204)">
    <rect x="0" y="0" width="20" height="16" rx="3" fill="#3C7A8A"/>
    <text x="10" y="12" font-size="8.5" fill="#E0E0E0" text-anchor="middle" class="mono bold">TS</text>
    <text x="26" y="12" font-size="12" fill="#73C991" class="mono bold">utils.ts</text>
    <text x="186" y="12" font-size="10.5" fill="#888888">13 hours ago</text>
    <text x="260" y="12" font-size="10.5" fill="#555555">Â·</text>
    <text x="270" y="12" font-size="10.5" fill="#888888">my-app/src</text>
    <text x="448" y="12" font-size="12" fill="#73C991" class="mono" text-anchor="end">U</text>
  </g>

  <!-- File: settings.json (untracked) -->
  <g transform="translate(54, 230)">
    <rect x="0" y="0" width="20" height="16" rx="3" fill="#C8963E"/>
    <text x="10" y="12" font-size="9" fill="#1E1E1E" text-anchor="middle" class="mono bold">{}</text>
    <text x="26" y="12" font-size="12" fill="#73C991" class="mono bold">settings.json</text>
    <text x="186" y="12" font-size="10.5" fill="#888888">14 hours ago</text>
    <text x="260" y="12" font-size="10.5" fill="#555555">Â·</text>
    <text x="270" y="12" font-size="10.5" fill="#888888">my-app/.vscode</text>
    <text x="448" y="12" font-size="12" fill="#73C991" class="mono" text-anchor="end">U</text>
  </g>

  <!-- File: api.ts (untracked) -->
  <g transform="translate(54, 256)">
    <rect x="0" y="0" width="20" height="16" rx="3" fill="#3C7A8A"/>
    <text x="10" y="12" font-size="8.5" fill="#E0E0E0" text-anchor="middle" class="mono bold">TS</text>
    <text x="26" y="12" font-size="12" fill="#73C991" class="mono bold">api.ts</text>
    <text x="186" y="12" font-size="10.5" fill="#888888">14 hours ago</text>
    <text x="260" y="12" font-size="10.5" fill="#555555">Â·</text>
    <text x="270" y="12" font-size="10.5" fill="#888888">my-app/src/services</text>
    <text x="448" y="12" font-size="12" fill="#73C991" class="mono" text-anchor="end">U</text>
  </g>

  <!-- â•â•â•â•â•â•â• Workspace 2: API-SERVER â•â•â•â•â•â•â• -->
  <rect x="0" y="290" width="520" height="26" fill="#2D2D2D"/>
  <g transform="translate(12, 296)">
    <text x="0" y="14" font-size="11" fill="#E0E0E0">â–¾</text>
    <text x="16" y="14" font-size="14">âš¡</text>
    <text x="34" y="14" font-size="13" fill="#FFFFFF" class="bold">API-SERVER</text>
    <text x="126" y="14" font-size="9" fill="#888888">â–¼</text>
    <text x="138" y="14" font-size="11" fill="#888888">(5)</text>
  </g>

  <line x1="28" y1="320" x2="28" y2="420" stroke="#404040" stroke-width="1"/>

  <!-- Yesterday -->
  <g transform="translate(34, 326)">
    <text x="0" y="14" font-size="11" fill="#E0E0E0">â–¾</text>
    <text x="16" y="14" font-size="12">ðŸ“…</text>
    <text x="32" y="14" font-size="12" fill="#E0E0E0">Yesterday</text>
    <text x="100" y="14" font-size="11" fill="#888888">(5 files)</text>
  </g>

  <line x1="46" y1="346" x2="46" y2="416" stroke="#404040" stroke-width="1"/>

  <!-- File: server.ts -->
  <g transform="translate(54, 350)">
    <rect x="0" y="0" width="20" height="16" rx="3" fill="#3C7A8A"/>
    <text x="10" y="12" font-size="8.5" fill="#E0E0E0" text-anchor="middle" class="mono bold">TS</text>
    <text x="26" y="12" font-size="12" fill="#E0E0E0" class="mono bold">server.ts</text>
    <text x="186" y="12" font-size="10.5" fill="#888888">12 hours ago</text>
    <text x="260" y="12" font-size="10.5" fill="#555555">Â·</text>
    <text x="270" y="12" font-size="10.5" fill="#888888">api-server/src</text>
    <text x="448" y="12" font-size="12" fill="#D7BA7D" class="mono" text-anchor="end">M</text>
  </g>

  <!-- File: auth.ts -->
  <g transform="translate(54, 376)">
    <rect x="0" y="0" width="20" height="16" rx="3" fill="#3C7A8A"/>
    <text x="10" y="12" font-size="8.5" fill="#E0E0E0" text-anchor="middle" class="mono bold">TS</text>
    <text x="26" y="12" font-size="12" fill="#E0E0E0" class="mono bold">auth.ts</text>
    <text x="186" y="12" font-size="10.5" fill="#888888">12 hours ago</text>
    <text x="260" y="12" font-size="10.5" fill="#555555">Â·</text>
    <text x="270" y="12" font-size="10.5" fill="#888888">api-server/src/middleware</text>
    <text x="448" y="12" font-size="12" fill="#D7BA7D" class="mono" text-anchor="end">M</text>
  </g>

  <!-- File: config.ts (fading) -->
  <g transform="translate(54, 402)" opacity="0.5">
    <rect x="0" y="0" width="20" height="16" rx="3" fill="#3C7A8A"/>
    <text x="10" y="12" font-size="8.5" fill="#E0E0E0" text-anchor="middle" class="mono bold">TS</text>
    <text x="26" y="12" font-size="12" fill="#73C991" class="mono bold">config.ts</text>
    <text x="186" y="12" font-size="10.5" fill="#888888">12 hours ago</text>
    <text x="260" y="12" font-size="10.5" fill="#555555">Â·</text>
    <text x="270" y="12" font-size="10.5" fill="#888888">api-server/src</text>
    <text x="448" y="12" font-size="12" fill="#73C991" class="mono" text-anchor="end">U</text>
  </g>

  <!-- â•â•â•â•â•â•â• Workspace 3: SHARED-LIB (collapsed) â•â•â•â•â•â•â• -->
  <rect x="0" y="430" width="520" height="26" fill="#2D2D2D"/>
  <g transform="translate(12, 436)">
    <text x="0" y="14" font-size="11" fill="#E0E0E0">â–¸</text>
    <text x="16" y="14" font-size="14">ðŸ“¦</text>
    <text x="34" y="14" font-size="13" fill="#FFFFFF" class="bold">SHARED-LIB</text>
    <text x="130" y="14" font-size="9" fill="#888888">â–¼</text>
    <text x="142" y="14" font-size="11" fill="#888888">(1)</text>
  </g>
</svg>
