<svg xmlns="http://www.w3.org/2000/svg" viewBox="0 0 420 340" width="100%" height="auto">
  <defs>
    <style>
      .bg { fill: #161b22; }
      .header-bar { fill: #21262d; }
      .section-bg { fill: #1c2128; }
      .row-alt { fill: #1c2128; opacity: 0.4; }
      .bright { fill: #e6edf3; font-family: system-ui, -apple-system, sans-serif; }
      .muted { fill: #8b949e; font-family: system-ui, -apple-system, sans-serif; }
      .accent { fill: #58a6ff; font-family: system-ui, -apple-system, sans-serif; }
      .green { fill: #3fb950; }
      .yellow { fill: #d29922; }
      .red { fill: #f85149; }
      .mono { font-family: 'Cascadia Code', 'Fira Code', Consolas, monospace; }
      .indent { stroke: #30363d; stroke-width: 1; }
    </style>
  </defs>

  <!-- Background -->
  <rect width="420" height="340" class="bg" rx="8"/>

  <!-- Header bar -->
  <rect x="0" y="0" width="420" height="32" class="header-bar" rx="8"/>
  <rect x="0" y="16" width="420" height="16" class="header-bar"/>
  <text x="16" y="21" class="muted" font-size="12" font-weight="700" letter-spacing="1.5">COMMAND CENTRAL</text>
  <text x="404" y="21" class="muted" font-size="13" text-anchor="end">&#x22EF;</text>

  <!-- â•â•â•â•â•â•â• Workspace 1: ðŸš€ MY-APP (expanded) â•â•â•â•â•â•â• -->
  <rect x="0" y="36" width="420" height="30" class="section-bg"/>
  <text x="12" y="56" font-size="16">&#x1F680;</text>
  <text x="34" y="56" class="bright" font-size="14" font-weight="700">MY-APP</text>
  <text x="108" y="56" class="muted" font-size="11">&#x25BC;</text>

  <!-- Today time group -->
  <text x="28" y="82" class="accent" font-size="13" font-weight="600">&#x25BE; Today</text>
  <text x="90" y="82" class="muted" font-size="12">(2 files)</text>

  <!-- Row 1: Header.tsx -->
  <rect x="0" y="90" width="420" height="30" fill="transparent"/>
  <line x1="34" y1="90" x2="34" y2="120" class="indent"/>
  <rect x="44" y="95" width="20" height="15" rx="3" fill="#519aba" opacity="0.2"/>
  <text x="54" y="106" fill="#519aba" font-size="9" font-weight="700" font-family="system-ui" text-anchor="middle">TS</text>
  <text x="72" y="109" class="bright mono" font-size="13" font-weight="700">Header.tsx</text>
  <text x="220" y="109" class="muted" font-size="12">2 hours ago</text>
  <text x="404" y="109" class="yellow" font-size="13" font-weight="700" text-anchor="end" font-family="monospace">M</text>

  <!-- Row 2: package.json -->
  <rect x="0" y="120" width="420" height="30" class="row-alt"/>
  <line x1="34" y1="120" x2="34" y2="150" class="indent"/>
  <rect x="44" y="125" width="20" height="15" rx="3" fill="#C8963E" opacity="0.2"/>
  <text x="54" y="136" fill="#C8963E" font-size="9" font-weight="700" font-family="system-ui" text-anchor="middle">{}</text>
  <text x="72" y="139" class="bright mono" font-size="13" font-weight="700">package.json</text>
  <text x="220" y="139" class="muted" font-size="12">5 hours ago</text>
  <text x="404" y="139" class="yellow" font-size="13" font-weight="700" text-anchor="end" font-family="monospace">M</text>

  <!-- Yesterday time group -->
  <text x="28" y="168" class="accent" font-size="13" font-weight="600">&#x25BE; Yesterday</text>
  <text x="112" y="168" class="muted" font-size="12">(1 file)</text>

  <!-- Row 3: utils.ts -->
  <rect x="0" y="176" width="420" height="30" fill="transparent"/>
  <line x1="34" y1="176" x2="34" y2="206" class="indent"/>
  <rect x="44" y="181" width="20" height="15" rx="3" fill="#519aba" opacity="0.2"/>
  <text x="54" y="192" fill="#519aba" font-size="9" font-weight="700" font-family="system-ui" text-anchor="middle">TS</text>
  <text x="72" y="195" class="bright mono" font-size="13">utils.ts</text>
  <text x="220" y="195" class="muted" font-size="12">13 hours ago</text>
  <text x="404" y="195" class="green" font-size="13" font-weight="700" text-anchor="end" font-family="monospace">U</text>

  <!-- Separator -->
  <line x1="12" y1="216" x2="408" y2="216" stroke="#30363d" stroke-width="0.5"/>

  <!-- â•â•â•â•â•â•â• Workspace 2: âš¡ API-SERVER (collapsed) â•â•â•â•â•â•â• -->
  <rect x="0" y="224" width="420" height="30" class="section-bg"/>
  <text x="12" y="244" class="muted" font-size="13">&#x25B8;</text>
  <text x="24" y="244" font-size="16">&#x26A1;</text>
  <text x="46" y="244" class="bright" font-size="14" font-weight="700">API-SERVER</text>
  <text x="144" y="244" class="muted" font-size="11">&#x25BC;</text>
  <text x="160" y="244" class="muted" font-size="12">(8)</text>

  <!-- Separator -->
  <line x1="12" y1="264" x2="408" y2="264" stroke="#30363d" stroke-width="0.5"/>

  <!-- â•â•â•â•â•â•â• Workspace 3: ðŸ“¦ SHARED-LIB (collapsed) â•â•â•â•â•â•â• -->
  <rect x="0" y="272" width="420" height="30" class="section-bg"/>
  <text x="12" y="292" class="muted" font-size="13">&#x25B8;</text>
  <text x="24" y="292" font-size="16">&#x1F4E6;</text>
  <text x="46" y="292" class="bright" font-size="14" font-weight="700">SHARED-LIB</text>
  <text x="146" y="292" class="muted" font-size="11">&#x25BC;</text>
  <text x="162" y="292" class="muted" font-size="12">(3)</text>
</svg>