<svg xmlns="http://www.w3.org/2000/svg" viewBox="0 0 420 340" font-family="system-ui, -apple-system, sans-serif">
  <defs>
    <style>
      .mono { font-family: 'Cascadia Code', 'Fira Code', Consolas, monospace; }
      .bold { font-weight: 700; }
    </style>
  </defs>

  <rect width="420" height="340" fill="#1E1E1E" rx="6"/>

  <!-- Panel header -->
  <rect x="0" y="0" width="420" height="32" fill="#252526" rx="6"/>
  <rect x="0" y="16" width="420" height="16" fill="#252526"/>
  <text x="16" y="21" font-size="11" fill="#CCCCCC" letter-spacing="0.5" font-weight="600">COMMAND CENTRAL</text>
  <text x="404" y="21" font-size="13" fill="#888888" text-anchor="end">⋯</text>

  <!-- Workspace 1: MY-APP (expanded) -->
  <g transform="translate(12, 42)">
    <text x="0" y="14" font-size="11" fill="#E0E0E0">▾</text>
    <text x="16" y="14" font-size="13">🚀</text>
    <text x="34" y="14" font-size="12" fill="#FFFFFF" class="bold">MY-APP</text>
    <text x="86" y="14" font-size="9" fill="#888888">▼</text>
    <text x="98" y="14" font-size="11" fill="#888888">(6)</text>
  </g>

  <!-- Vertical guide -->
  <line x1="28" y1="62" x2="28" y2="220" stroke="#404040" stroke-width="1"/>

  <!-- Time group: Today (expanded) -->
  <g transform="translate(34, 66)">
    <text x="0" y="14" font-size="11" fill="#E0E0E0">▾</text>
    <text x="16" y="14" font-size="12">📅</text>
    <text x="32" y="14" font-size="11.5" fill="#E0E0E0">Today</text>
    <text x="68" y="14" font-size="11" fill="#888888">(2)</text>
  </g>

  <!-- Vertical guide for files -->
  <line x1="46" y1="86" x2="46" y2="140" stroke="#404040" stroke-width="1"/>

  <!-- File 1 -->
  <g transform="translate(54, 90)">
    <rect x="0" y="0" width="18" height="16" rx="2" fill="#3C7A8A"/>
    <text x="9" y="12" font-size="8" fill="#E0E0E0" text-anchor="middle" class="mono bold">TS</text>
    <text x="24" y="12" font-size="11.5" fill="#E0E0E0" class="mono bold">Header.tsx</text>
    <text x="110" y="12" font-size="10" fill="#888888">2 hours ago</text>
    <text x="180" y="12" font-size="10" fill="#666666">·</text>
    <text x="188" y="12" font-size="10" fill="#888888">src/components</text>
    <text x="348" y="12" font-size="11" fill="#D7BA7D" class="mono" text-anchor="end">M</text>
  </g>

  <!-- File 2 -->
  <g transform="translate(54, 116)">
    <rect x="0" y="0" width="18" height="16" rx="2" fill="#C8963E"/>
    <text x="9" y="12" font-size="8" fill="#1E1E1E" text-anchor="middle" class="mono bold">{}</text>
    <text x="24" y="12" font-size="11.5" fill="#E0E0E0" class="mono bold">package.json</text>
    <text x="126" y="12" font-size="10" fill="#888888">5 hours ago</text>
    <text x="196" y="12" font-size="10" fill="#666666">·</text>
    <text x="204" y="12" font-size="10" fill="#888888">root</text>
    <text x="348" y="12" font-size="11" fill="#D7BA7D" class="mono" text-anchor="end">M</text>
  </g>

  <!-- Time group: Yesterday (collapsed) -->
  <g transform="translate(34, 148)">
    <text x="0" y="14" font-size="11" fill="#E0E0E0">▸</text>
    <text x="16" y="14" font-size="12">📅</text>
    <text x="32" y="14" font-size="11.5" fill="#E0E0E0">Yesterday</text>
    <text x="96" y="14" font-size="11" fill="#888888">(4)</text>
  </g>

  <!-- Separator line -->
  <line x1="12" y1="178" x2="408" y2="178" stroke="#333333" stroke-width="0.5"/>

  <!-- Workspace 2: API-SERVER (collapsed) -->
  <g transform="translate(12, 190)">
    <text x="0" y="14" font-size="11" fill="#E0E0E0">▸</text>
    <text x="16" y="14" font-size="13">⚡</text>
    <text x="34" y="14" font-size="12" fill="#FFFFFF" class="bold">API-SERVER</text>
    <text x="114" y="14" font-size="9" fill="#888888">▼</text>
    <text x="126" y="14" font-size="11" fill="#888888">(8)</text>
  </g>

  <!-- Separator -->
  <line x1="12" y1="216" x2="408" y2="216" stroke="#333333" stroke-width="0.5"/>

  <!-- Workspace 3: SHARED-LIB (collapsed) -->
  <g transform="translate(12, 228)">
    <text x="0" y="14" font-size="11" fill="#E0E0E0">▸</text>
    <text x="16" y="14" font-size="13">📦</text>
    <text x="34" y="14" font-size="12" fill="#FFFFFF" class="bold">SHARED-LIB</text>
    <text x="118" y="14" font-size="9" fill="#888888">▼</text>
    <text x="130" y="14" font-size="11" fill="#888888">(2)</text>
  </g>
</svg>