<?xml version="1.0" encoding="UTF-8"?>
<svg width="24" height="24" viewBox="0 0 24 24" xmlns="http://www.w3.org/2000/svg">
  <!-- Command Central v5: Circuit Hub - Tech, modern, sophisticated -->

  <!-- Outer circuit frame -->
  <path d="M 2 6 L 2 2 L 6 2" stroke="currentColor" stroke-width="2" opacity="0.5" fill="none"/>
  <path d="M 18 2 L 22 2 L 22 6" stroke="currentColor" stroke-width="2" opacity="0.5" fill="none"/>
  <path d="M 22 18 L 22 22 L 18 22" stroke="currentColor" stroke-width="2" opacity="0.5" fill="none"/>
  <path d="M 6 22 L 2 22 L 2 18" stroke="currentColor" stroke-width="2" opacity="0.5" fill="none"/>

  <!-- Inner circuit connections -->
  <path d="M 6 6 L 6 4 L 8 4" stroke="currentColor" stroke-width="1.5" opacity="0.6" fill="none"/>
  <path d="M 18 6 L 18 4 L 16 4" stroke="currentColor" stroke-width="1.5" opacity="0.6" fill="none"/>
  <path d="M 18 18 L 18 20 L 16 20" stroke="currentColor" stroke-width="1.5" opacity="0.6" fill="none"/>
  <path d="M 6 18 L 6 20 L 8 20" stroke="currentColor" stroke-width="1.5" opacity="0.6" fill="none"/>

  <!-- Central processor/command unit -->
  <rect x="7" y="7" width="10" height="10" rx="1.5" fill="none" stroke="currentColor" stroke-width="2" opacity="0.7"/>

  <!-- Core -->
  <circle cx="12" cy="12" r="3" fill="currentColor" opacity="0.85"/>

  <!-- Connection nodes -->
  <circle cx="2" cy="2" r="1.5" fill="currentColor" opacity="0.6"/>
  <circle cx="22" cy="2" r="1.5" fill="currentColor" opacity="0.6"/>
  <circle cx="2" cy="22" r="1.5" fill="currentColor" opacity="0.6"/>
  <circle cx="22" cy="22" r="1.5" fill="currentColor" opacity="0.6"/>

  <!-- Data flow indicators -->
  <circle cx="12" cy="7" r="1" fill="currentColor" opacity="0.7"/>
  <circle cx="17" cy="12" r="1" fill="currentColor" opacity="0.7"/>
  <circle cx="12" cy="17" r="1" fill="currentColor" opacity="0.7"/>
  <circle cx="7" cy="12" r="1" fill="currentColor" opacity="0.7"/>
</svg>
